<?xml version="1.0" standalone="no"?>
<!DOCTYPE svg PUBLIC "-//W3C//DTD SVG 20010904//EN"
 "http://www.w3.org/TR/2001/REC-SVG-20010904/DTD/svg10.dtd">
<svg version="1.0" xmlns="http://www.w3.org/2000/svg"
 width="1859.000000pt" height="741.000000pt" viewBox="0 0 1859.000000 741.000000"
 preserveAspectRatio="xMidYMid meet">

<g transform="translate(0.000000,741.000000) scale(0.100000,-0.100000)"
fill="#000000" stroke="none">
<path d="M2335 5386 c-161 -39 -276 -155 -320 -321 -23 -91 -22 -1236 1 -1331
34 -134 139 -256 264 -307 l55 -22 1060 -3 c779 -2 1075 0 1115 8 119 26 231
110 288 218 23 43 62 187 62 228 0 2 -415 4 -923 4 -1033 0 -987 -3 -1070 70
-32 29 -52 57 -67 97 -20 53 -21 71 -18 387 3 305 5 334 23 371 28 57 89 111
151 135 54 20 73 20 974 20 l920 0 0 43 c0 96 -52 217 -126 293 -49 50 -137
97 -212 113 -78 16 -2108 14 -2177 -3z"/>
<path d="M15524 4972 c-25 -12 -50 -35 -65 -58 -23 -37 -24 -49 -29 -244 l-5
-205 -305 -6 c-344 -7 -408 -16 -507 -75 -108 -64 -179 -161 -208 -287 -37
-158 -37 -845 0 -981 47 -176 165 -287 345 -325 82 -18 412 -29 703 -23 242 4
260 6 290 26 18 12 41 39 52 61 19 39 20 63 21 985 1 520 -2 969 -6 998 -4 29
-16 65 -27 80 -45 63 -180 91 -259 54z m-104 -1357 l0 -455 -260 0 c-198 0
-269 3 -293 14 -38 16 -84 66 -95 104 -4 15 -7 167 -7 337 0 331 4 362 49 404
48 45 85 50 354 51 l252 0 0 -455z"/>
<path d="M16285 4956 c-70 -42 -107 -135 -85 -215 45 -167 285 -191 360 -36
28 57 23 136 -10 190 -51 83 -180 112 -265 61z"/>
<path d="M5420 4611 c-1121 -7 -1045 -2 -1144 -70 -84 -58 -143 -144 -172
-254 -12 -46 -18 -103 -11 -109 1 -2 421 -5 932 -8 l930 -5 60 -30 c67 -34
117 -91 137 -158 18 -60 18 -657 0 -708 -28 -81 -67 -125 -138 -160 l-69 -34
-912 -1 c-502 -1 -920 -4 -928 -8 -14 -5 -16 -48 -13 -388 4 -445 3 -440 99
-543 85 -91 153 -120 279 -120 88 0 101 3 162 33 75 37 142 104 179 179 20 42
23 68 29 216 4 133 8 170 20 177 9 6 348 10 850 10 890 0 882 0 979 49 57 30
136 104 168 159 14 23 34 70 44 103 18 57 19 101 19 677 0 386 -4 634 -11 662
-24 103 -91 200 -182 261 -70 46 -133 66 -224 72 -37 2 -525 1 -1083 -2z"/>
<path d="M8335 4450 c-197 -15 -333 -99 -405 -251 -49 -105 -55 -166 -55 -599
1 -377 2 -399 23 -474 39 -140 108 -231 220 -289 123 -64 162 -68 654 -65 423
3 437 4 465 24 44 32 73 98 73 167 0 62 -14 99 -52 133 -56 51 -57 52 -473 56
l-390 3 -45 25 c-32 18 -52 38 -67 70 -22 43 -23 52 -23 365 0 313 1 322 23
365 43 85 36 84 492 90 366 5 403 7 438 24 109 54 131 236 39 319 -47 43 -79
46 -457 45 -198 0 -405 -4 -460 -8z"/>
<path d="M9607 4445 c-51 -18 -85 -51 -98 -94 -7 -24 -9 -226 -7 -606 5 -621
4 -612 64 -731 32 -64 121 -152 184 -182 111 -53 133 -55 620 -59 l455 -5 35
24 c89 59 109 219 37 296 -53 57 -51 57 -472 62 l-391 5 -49 26 c-69 35 -95
82 -95 172 l0 67 213 0 c333 0 462 9 500 34 48 32 72 88 72 167 0 82 -31 136
-97 168 -42 20 -59 21 -366 21 l-322 0 0 135 0 134 473 3 c470 3 472 3 503 25
41 29 67 85 72 153 5 79 -26 135 -97 172 l-53 28 -572 0 c-457 -1 -579 -4
-609 -15z"/>
<path d="M11210 4441 c-51 -27 -77 -71 -85 -144 -3 -34 -5 -483 -3 -997 3
-922 3 -936 24 -974 29 -56 80 -80 169 -81 92 0 141 24 173 85 21 41 22 57 22
241 l0 197 323 4 c364 5 395 10 513 86 127 82 184 196 205 412 16 159 5 739
-15 833 -39 177 -174 299 -378 341 -63 13 -153 16 -495 16 -388 0 -421 -1
-453 -19z m853 -385 c45 -17 73 -40 96 -81 14 -25 16 -74 19 -322 5 -385 -5
-430 -102 -474 -36 -17 -69 -19 -298 -19 l-258 0 0 455 0 455 253 0 c186 -1
262 -4 290 -14z"/>
<path d="M12866 4450 c-37 -12 -85 -56 -102 -97 -20 -47 -20 -1072 0 -1184 35
-196 153 -325 341 -374 93 -24 381 -36 693 -28 265 6 286 8 315 27 80 53 103
202 44 280 -55 72 -47 70 -482 76 l-391 5 -49 25 c-66 34 -95 88 -95 177 l0
63 258 1 c333 1 422 8 459 35 45 32 68 89 68 165 0 82 -31 136 -97 168 -42 20
-59 21 -366 21 l-322 0 0 129 c0 129 0 129 25 135 13 3 220 6 459 5 416 -2
435 -1 472 18 48 24 81 80 90 151 12 96 -38 178 -124 202 -46 12 -1153 12
-1196 0z"/>
<path d="M16116 4450 c-65 -20 -115 -100 -116 -183 0 -91 49 -156 142 -188
l53 -18 5 -588 c5 -567 6 -589 25 -623 12 -20 39 -45 65 -58 61 -32 180 -28
229 7 69 50 66 7 69 806 l2 720 -22 44 c-42 81 -55 86 -251 88 -95 1 -185 -2
-201 -7z"/>
</g>
</svg>
