<svg xmlns="http://www.w3.org/2000/svg" width="177" height="50" viewBox="0 0 177 50"><path fill="#404B52" d="M3.3,0 C1.5,0 0,1.4 0,3.2 C0,5 1.4,6.5 3.2,6.5 C5,6.5 6.5,5.1 6.5,3.3 C6.5,3.3 6.5,3.3 6.5,3.3 C6.5,1.5 5,0 3.3,0 Z M123.7,0 C121.9,0 120.4,1.5 120.4,3.3 C120.4,5.1 121.9,6.6 123.7,6.6 C125.5,6.6 127,5.1 127,3.3 C127,3.3 127,3.3 127,3.3 C127,1.5 125.5,0 123.7,0 Z M13.2,1 L13.2,5.6 L113.8,5.6 L113.8,1 L13.2,1 Z M26.8,13.5 C23.2,13.5 20.5,15.6 18.9,16.8 L18.9,16.8 L18.7,17 C18.3,15.4 17,14.3 15.4,14.2 L13.2,14.2 L13.2,39.5 L18.9,39.5 L18.9,21 C20,20.4 22.6,18.8 25,18.8 C28.2,18.8 28.8,20.5 28.8,24.1 L28.8,39.5 L34.5,39.5 L34.5,23.4 C34.5,18.2 34,13.5 26.8,13.5 L26.8,13.5 Z M106.1,13.5 C102.5,13.5 99.8,15.6 98.2,16.8 L98.2,16.8 C98.1,16.9 98.1,16.9 98,17 C97.6,15.4 96.3,14.3 94.7,14.2 L92.5,14.2 L92.5,39.5 L98.2,39.5 L98.2,21 C99.3,20.4 101.9,18.8 104.3,18.8 C107.5,18.8 108.1,20.5 108.1,24.1 L108.1,39.5 L113.8,39.5 L113.8,23.4 C113.8,18.2 113.3,13.5 106.1,13.5 L106.1,13.5 Z M144.2,13.6 C136.7,13.6 132,18.7 132,26.7 C132,36.2 135.6,40 145.1,40 C147.1,40 149.1,39.7 151.1,39.2 L150.3,34.5 C148.7,34.8 147.1,35 145.5,35.1 C139.3,35.1 137.9,32.6 137.9,26.8 C137.9,20.9 140.7,18.6 144.3,18.6 C146.2,18.6 148,19 149.7,19.7 L151.3,15.2 C149.1,14 146.6,13.4 144.2,13.6 L144.2,13.6 Z M165.9,13.6 C158.9,13.6 154.2,18.6 154.2,27.1 C154.2,35.2 158.3,40.1 165.5,40.1 C172.3,40.1 177.4,35.6 177.4,26.9 C177.4,18.4 173.7,13.6 165.9,13.6 L165.9,13.6 Z M77.9,13.6 C71.3,13.6 66.4,17 66.4,27.3 C66.4,37.2 71.1,40 78.5,40 C81.3,40.1 84.1,39.7 86.8,39 L85.9,34.3 C83.8,34.7 81.7,34.9 79.5,34.9 C75.3,34.9 72.1,34.1 72,28.6 L87.4,28.6 L87.4,26.4 C87.4,18.4 84.7,13.6 77.9,13.6 L77.9,13.6 Z M51.9,13.8 C45.2,13.8 39.6,18.4 39.6,27 C39.6,38.5 45.6,39.9 51,39.9 C52.7,39.9 54.2,39.3 55.5,38.2 C55.5,38.7 55.5,39.1 55.5,39.6 C55.5,44.1 53,44.7 49.2,44.7 C46.8,44.6 44.4,44.3 42.1,43.7 L41.2,48.5 C44.1,49.4 47.1,49.8 50.1,49.8 C55.1,49.8 61.1,47.2 61.1,40.2 L61.1,14.8 C58.1,14.2 55,13.9 51.9,13.8 L51.9,13.8 Z M0.4,14.2 L0.4,39.5 L6.1,39.5 L6.1,14.2 L0.4,14.2 Z M120.9,14.2 L120.9,39.5 L126.6,39.5 L126.6,14.2 L120.9,14.2 Z M77.4,18.2 C79.8,18.2 81.7,20.3 81.6,24.2 L72.2,24.2 C72.4,20 74.9,18.2 77.4,18.2 Z M165.8,18.4 C170.5,18.4 171.6,22.5 171.6,26.8 C171.6,31.4 170.5,35.1 165.9,35.1 C161.4,35.1 159.9,31.6 159.9,26.8 C159.9,22.5 161.1,18.4 165.8,18.4 L165.8,18.4 Z M51.8,18.8 C53,18.8 54.3,18.9 55.5,19.1 L55.5,33.9 C54.2,34.7 52.8,35.1 51.3,35.2 C47.6,35.2 45.2,33.1 45.2,27.1 C45.2,22.3 47.1,18.8 51.8,18.8 Z"/></svg>